<svg width="19" height="14" viewBox="0 0 19 14" fill="none" xmlns="http://www.w3.org/2000/svg">
<rect width="19" height="14" rx="2" fill="white"/>
<mask id="mask0_1911_5598" style="mask-type:luminance" maskUnits="userSpaceOnUse" x="0" y="0" width="19" height="14">
<rect width="19" height="14" rx="2" fill="white"/>
</mask>
<g mask="url(#mask0_1911_5598)">
<path fill-rule="evenodd" clip-rule="evenodd" d="M19 0H0V0.933333H19V0ZM19 1.86667H0V2.8H19V1.86667ZM0 3.73333H19V4.66667H0V3.73333ZM19 5.6H0V6.53333H19V5.6ZM0 7.46667H19V8.4H0V7.46667ZM19 9.33333H0V10.2667H19V9.33333ZM0 11.2H19V12.1333H0V11.2ZM19 13.0667H0V14H19V13.0667Z" fill="#D02F44"/>
<rect width="8.14286" height="6.53333" fill="#46467F"/>
<g filter="url(#filter0_d_1911_5598)">
<path fill-rule="evenodd" clip-rule="evenodd" d="M1.35668 1.86644C1.60652 1.86644 1.80906 1.65751 1.80906 1.39977C1.80906 1.14204 1.60652 0.933105 1.35668 0.933105C1.10683 0.933105 0.904297 1.14204 0.904297 1.39977C0.904297 1.65751 1.10683 1.86644 1.35668 1.86644ZM3.1662 1.86644C3.41604 1.86644 3.61858 1.65751 3.61858 1.39977C3.61858 1.14204 3.41604 0.933105 3.1662 0.933105C2.91636 0.933105 2.71382 1.14204 2.71382 1.39977C2.71382 1.65751 2.91636 1.86644 3.1662 1.86644ZM5.42811 1.39977C5.42811 1.65751 5.22557 1.86644 4.97573 1.86644C4.72588 1.86644 4.52334 1.65751 4.52334 1.39977C4.52334 1.14204 4.72588 0.933105 4.97573 0.933105C5.22557 0.933105 5.42811 1.14204 5.42811 1.39977ZM6.78525 1.86644C7.03509 1.86644 7.23763 1.65751 7.23763 1.39977C7.23763 1.14204 7.03509 0.933105 6.78525 0.933105C6.53541 0.933105 6.33287 1.14204 6.33287 1.39977C6.33287 1.65751 6.53541 1.86644 6.78525 1.86644ZM2.71336 2.3331C2.71336 2.59084 2.51082 2.79977 2.26097 2.79977C2.01113 2.79977 1.80859 2.59084 1.80859 2.3331C1.80859 2.07537 2.01113 1.86644 2.26097 1.86644C2.51082 1.86644 2.71336 2.07537 2.71336 2.3331ZM4.07054 2.79977C4.32039 2.79977 4.52293 2.59084 4.52293 2.3331C4.52293 2.07537 4.32039 1.86644 4.07054 1.86644C3.8207 1.86644 3.61816 2.07537 3.61816 2.3331C3.61816 2.59084 3.8207 2.79977 4.07054 2.79977ZM6.3325 2.3331C6.3325 2.59084 6.12996 2.79977 5.88012 2.79977C5.63027 2.79977 5.42773 2.59084 5.42773 2.3331C5.42773 2.07537 5.63027 1.86644 5.88012 1.86644C6.12996 1.86644 6.3325 2.07537 6.3325 2.3331ZM6.78525 3.73311C7.03509 3.73311 7.23763 3.52417 7.23763 3.26644C7.23763 3.00871 7.03509 2.79977 6.78525 2.79977C6.53541 2.79977 6.33287 3.00871 6.33287 3.26644C6.33287 3.52417 6.53541 3.73311 6.78525 3.73311ZM5.42811 3.26644C5.42811 3.52417 5.22557 3.73311 4.97573 3.73311C4.72588 3.73311 4.52334 3.52417 4.52334 3.26644C4.52334 3.00871 4.72588 2.79977 4.97573 2.79977C5.22557 2.79977 5.42811 3.00871 5.42811 3.26644ZM3.1662 3.73311C3.41604 3.73311 3.61858 3.52417 3.61858 3.26644C3.61858 3.00871 3.41604 2.79977 3.1662 2.79977C2.91636 2.79977 2.71382 3.00871 2.71382 3.26644C2.71382 3.52417 2.91636 3.73311 3.1662 3.73311ZM1.80906 3.26644C1.80906 3.52417 1.60652 3.73311 1.35668 3.73311C1.10683 3.73311 0.904297 3.52417 0.904297 3.26644C0.904297 3.00871 1.10683 2.79977 1.35668 2.79977C1.60652 2.79977 1.80906 3.00871 1.80906 3.26644ZM2.26097 4.66644C2.51082 4.66644 2.71336 4.4575 2.71336 4.19977C2.71336 3.94204 2.51082 3.7331 2.26097 3.7331C2.01113 3.7331 1.80859 3.94204 1.80859 4.19977C1.80859 4.4575 2.01113 4.66644 2.26097 4.66644ZM4.52293 4.19977C4.52293 4.4575 4.32039 4.66644 4.07054 4.66644C3.8207 4.66644 3.61816 4.4575 3.61816 4.19977C3.61816 3.94204 3.8207 3.7331 4.07054 3.7331C4.32039 3.7331 4.52293 3.94204 4.52293 4.19977ZM5.88012 4.66644C6.12996 4.66644 6.3325 4.4575 6.3325 4.19977C6.3325 3.94204 6.12996 3.7331 5.88012 3.7331C5.63027 3.7331 5.42773 3.94204 5.42773 4.19977C5.42773 4.4575 5.63027 4.66644 5.88012 4.66644ZM7.23763 5.13311C7.23763 5.39084 7.03509 5.59977 6.78525 5.59977C6.53541 5.59977 6.33287 5.39084 6.33287 5.13311C6.33287 4.87537 6.53541 4.66644 6.78525 4.66644C7.03509 4.66644 7.23763 4.87537 7.23763 5.13311ZM4.97573 5.59977C5.22557 5.59977 5.42811 5.39084 5.42811 5.13311C5.42811 4.87537 5.22557 4.66644 4.97573 4.66644C4.72588 4.66644 4.52334 4.87537 4.52334 5.13311C4.52334 5.39084 4.72588 5.59977 4.97573 5.59977ZM3.61858 5.13311C3.61858 5.39084 3.41604 5.59977 3.1662 5.59977C2.91636 5.59977 2.71382 5.39084 2.71382 5.13311C2.71382 4.87537 2.91636 4.66644 3.1662 4.66644C3.41604 4.66644 3.61858 4.87537 3.61858 5.13311ZM1.35668 5.59977C1.60652 5.59977 1.80906 5.39084 1.80906 5.13311C1.80906 4.87537 1.60652 4.66644 1.35668 4.66644C1.10683 4.66644 0.904297 4.87537 0.904297 5.13311C0.904297 5.39084 1.10683 5.59977 1.35668 5.59977Z" fill="url(#paint0_linear_1911_5598)"/>
</g>
</g>
<defs>
<filter id="filter0_d_1911_5598" x="0.904297" y="0.933105" width="6.33325" height="5.6665" filterUnits="userSpaceOnUse" color-interpolation-filters="sRGB">
<feFlood flood-opacity="0" result="BackgroundImageFix"/>
<feColorMatrix in="SourceAlpha" type="matrix" values="0 0 0 0 0 0 0 0 0 0 0 0 0 0 0 0 0 0 127 0" result="hardAlpha"/>
<feOffset dy="1"/>
<feColorMatrix type="matrix" values="0 0 0 0 0 0 0 0 0 0 0 0 0 0 0 0 0 0 0.06 0"/>
<feBlend mode="normal" in2="BackgroundImageFix" result="effect1_dropShadow_1911_5598"/>
<feBlend mode="normal" in="SourceGraphic" in2="effect1_dropShadow_1911_5598" result="shape"/>
</filter>
<linearGradient id="paint0_linear_1911_5598" x1="0.904297" y1="0.933105" x2="0.904297" y2="5.59977" gradientUnits="userSpaceOnUse">
<stop stop-color="white"/>
<stop offset="1" stop-color="#F0F0F0"/>
</linearGradient>
</defs>
</svg>
