<svg width="32" height="32" viewBox="0 0 32 32" fill="none" xmlns="http://www.w3.org/2000/svg">
<path fill-rule="evenodd" clip-rule="evenodd" d="M14.4805 14.2055H16.6814V15.3018C16.9984 14.6712 17.8115 14.1047 19.0328 14.1047C21.3741 14.1047 21.93 15.3598 21.93 17.6626V21.9275H19.5596V18.1871C19.5596 16.8757 19.2426 16.1361 18.4355 16.1361C17.3161 16.1361 16.8509 16.9332 16.8509 18.1865V21.9275H14.4805V14.2055ZM10.4159 21.8268H12.7863V14.1047H10.4159V21.8268ZM13.1258 11.5868C13.1259 11.7855 13.0865 11.9822 13.0099 12.1655C12.9333 12.3488 12.821 12.5151 12.6796 12.6546C12.393 12.9395 12.0051 13.0989 11.6011 13.0979C11.1978 13.0976 10.8108 12.9386 10.5238 12.6552C10.3828 12.5152 10.2709 12.3488 10.1945 12.1654C10.118 11.9821 10.0785 11.7854 10.0781 11.5868C10.0781 11.1856 10.2381 10.8016 10.5243 10.5184C10.8111 10.2346 11.1983 10.0755 11.6017 10.0757C12.0058 10.0757 12.3934 10.2351 12.6796 10.5184C12.9652 10.8016 13.1258 11.1856 13.1258 11.5868Z" fill="#00060B"/>
<circle cx="16" cy="16" r="15.5" stroke="#C6C6C6"/>
</svg>
