<svg width="32" height="32" viewBox="0 0 32 32" fill="none" xmlns="http://www.w3.org/2000/svg">
<path d="M22.4082 12.1633C21.9429 12.3701 21.4518 12.4993 20.9348 12.5769C21.4518 12.2667 21.8654 11.7755 22.0463 11.181C21.5552 11.4653 21.0123 11.6721 20.4178 11.8014C19.9524 11.3102 19.2803 11 18.5565 11C17.1606 11 16.0232 12.1374 16.0232 13.5334C16.0232 13.7402 16.049 13.9211 16.1007 14.1021C14.0068 13.9987 12.1197 12.9905 10.8531 11.4395C10.6463 11.8272 10.517 12.2408 10.517 12.7061C10.517 13.5851 10.9565 14.3606 11.6544 14.8259C11.2408 14.8 10.8531 14.6966 10.4912 14.5157V14.5415C10.4912 15.7823 11.3701 16.8164 12.5334 17.049C12.3265 17.1007 12.0939 17.1266 11.8612 17.1266C11.7061 17.1266 11.5252 17.1007 11.3701 17.0749C11.7061 18.083 12.6368 18.8327 13.7483 18.8327C12.8694 19.5048 11.7837 19.9184 10.5946 19.9184C10.3878 19.9184 10.181 19.9184 10 19.8926C11.1374 20.6164 12.4558 21.03 13.9034 21.03C18.5824 21.03 21.1416 17.1524 21.1416 13.7919C21.1416 13.6885 21.1416 13.5592 21.1416 13.4558C21.6327 13.1197 22.0722 12.6803 22.4082 12.1633Z" fill="#00060B"/>
<circle cx="16" cy="16" r="15.5" stroke="#C6C6C6"/>
</svg>
